<svg id="Group_6387" data-name="Group 6387" xmlns="http://www.w3.org/2000/svg" xmlns:xlink="http://www.w3.org/1999/xlink" width="1055.339" height="899.863" viewBox="0 0 1055.339 899.863">
  <defs>
    <linearGradient id="linear-gradient" x1="0.5" y1="-0.2" x2="0.5" y2="0.988" gradientUnits="objectBoundingBox">
      <stop offset="0" stop-color="#fff"/>
      <stop offset="1" stop-color="#e6ecef"/>
    </linearGradient>
    <linearGradient id="linear-gradient-2" x1="0.5" y1="0" x2="0.5" y2="1" xlink:href="#linear-gradient"/>
    <linearGradient id="linear-gradient-4" x1="1" y1="0.5" x2="0" y2="0.5" gradientUnits="objectBoundingBox">
      <stop offset="0" stop-color="#00b6ca"/>
      <stop offset="1" stop-color="#0095a5"/>
    </linearGradient>
    <linearGradient id="linear-gradient-6" x1="0.5" y1="0.126" x2="0.5" y2="0.933" gradientUnits="objectBoundingBox">
      <stop offset="0" stop-color="#fa9887"/>
      <stop offset="0.614" stop-color="#e3637a"/>
      <stop offset="1" stop-color="#d84774"/>
    </linearGradient>
    <linearGradient id="linear-gradient-7" x1="4.062" y1="0.07" x2="-1.137" y2="0.698" xlink:href="#linear-gradient-6"/>
    <linearGradient id="linear-gradient-8" x1="0.5" y1="0" x2="0.5" y2="1" xlink:href="#linear-gradient-6"/>
    <linearGradient id="linear-gradient-9" x1="1" y1="0.5" x2="0" y2="0.5" xlink:href="#linear-gradient-6"/>
    <clipPath id="clip-path">
      <path id="Path_8200" data-name="Path 8200" d="M461.575,394.337a47.529,47.529,0,0,1,4.293-4.243q-.019-7.239-.04-14.48a47.529,47.529,0,0,0-4.3,4.243Q461.555,387.1,461.575,394.337Z" transform="translate(-461.532 -375.614)" fill="none"/>
    </clipPath>
    <clipPath id="clip-path-2">
      <path id="Path_8202" data-name="Path 8202" d="M466.052,391.789a1.193,1.193,0,0,0,0-.365c0-.941-.005-1.885-.008-2.826q0-1.6-.008-3.191-.015-4.051-.025-8.1a40.19,40.19,0,0,0-2.768,3.484q.022,7.239.042,14.48A40.071,40.071,0,0,1,466.052,391.789Z" transform="translate(-463.241 -377.309)" fill="none"/>
    </clipPath>
    <clipPath id="clip-path-3">
      <path id="Path_8204" data-name="Path 8204" d="M464.393,396.983a34.674,34.674,0,0,1,2.34-3.8q-.023-7.239-.043-14.48a35.007,35.007,0,0,0-2.338,3.8Q464.375,389.743,464.393,396.983Z" transform="translate(-464.353 -378.701)" fill="none"/>
    </clipPath>
    <clipPath id="clip-path-4">
      <path id="Path_8206" data-name="Path 8206" d="M467.235,394.7a3.638,3.638,0,0,0,0-.791c-.005-.866-.005-1.732-.008-2.6q-.008-1.693-.01-3.387-.011-3.852-.022-7.71a30.57,30.57,0,0,0-1.917,4.43q.023,7.243.043,14.483A30.317,30.317,0,0,1,467.235,394.7Z" transform="translate(-465.278 -380.219)" fill="none"/>
    </clipPath>
    <clipPath id="clip-path-5">
      <path id="Path_8208" data-name="Path 8208" d="M466.093,398.161q.229-.849.518-1.69-.023-7.243-.043-14.483-.285.845-.516,1.692Q466.072,390.92,466.093,398.161Z" transform="translate(-466.053 -381.989)" fill="none"/>
    </clipPath>
    <clipPath id="clip-path-6">
      <path id="Path_8229" data-name="Path 8229" d="M405.362,385.726l.043,14.48c.03,11.3,7.457,22.573,22.282,31.191,29.864,17.354,78.386,17.354,108.443,0,15.116-8.728,22.67-20.185,22.638-31.629l-.04-14.48c.033,11.442-7.522,22.9-22.638,31.626-30.057,17.354-78.582,17.354-108.443,0C412.821,408.3,405.395,397.02,405.362,385.726Z" transform="translate(-405.362 -385.288)" fill="none"/>
    </clipPath>
    <linearGradient id="linear-gradient-25" x1="1" y1="0.5" x2="0" y2="0.5" xlink:href="#linear-gradient-6"/>
    <linearGradient id="linear-gradient-30" x1="1" y1="0.5" x2="0" y2="0.5" xlink:href="#linear-gradient-6"/>
    <linearGradient id="linear-gradient-31" x1="1.909" y1="-0.12" x2="-1.388" y2="1.351" xlink:href="#linear-gradient-6"/>
    <linearGradient id="linear-gradient-33" x1="1" y1="0.5" x2="0" y2="0.5" xlink:href="#linear-gradient-6"/>
    <linearGradient id="linear-gradient-34" x1="0.517" y1="-0.126" x2="0.447" y2="2.434" xlink:href="#linear-gradient-6"/>
  </defs>
  <path id="Path_8113" data-name="Path 8113" d="M651.188,303.21c-66.284,6.04-132.556,11.872-198.977,15.254-29.7,1.512-64.427,2.42-89.971,19.662-39.424,26.182,1.887,64.021,7.837,93.9,6.4,32.147-27.326,36.665-32.35,63.951C333.047,521.414,366,542.928,383.6,554.825c59.383,40.162,121.049,71.528,187.8,97.357,40.98,15.854,87.085,31.093,131.177,34.848,29.454,2.511,38.64.471,43.135-25.749,3.712-21.644,15.834-23.381,39.036-24.628,49.225-2.641,98.541,3.111,147.742.876,45.946-2.085,91.342-2.39,137.254-5.9,28.723-2.2,59.473-1.537,87.162-10.858,30.555-10.285,49.937-22.863,47.453-56.407-1.842-24.883-14.946-45.278-19.4-69.105-5.945-31.817,11.226-50.159,34.933-66.717,24.7-17.254,54.394-45.256,39.811-77.891-13.166-29.461-59.618-42.607-88.294-46.024C1054.6,290.71,939.841,280.195,822.161,288.6,765.1,292.675,708.138,298.019,651.188,303.21Z" transform="translate(-287.709 180.884)" fill="url(#linear-gradient)"/>
  <g id="Group_6301" data-name="Group 6301" transform="translate(0 444.233)">
    <path id="Path_8114" data-name="Path 8114" d="M739.012,732.341c20.057,0,28.56-6.083,32.83-30.963,4.045-23.587,16.748-25.306,42.805-26.705,28.37-1.517,57.258-.551,85.192.393,26.63.9,54.174,1.827,81.24.6,18.415-.833,37.048-1.427,55.068-2,32.575-1.034,66.256-2.1,99.6-4.653,7.3-.558,14.881-.961,22.208-1.352,25.559-1.357,51.989-2.761,76.291-10.941,35.606-11.98,57.11-27,54.309-64.815-1.187-16.032-6.538-30.59-11.715-44.667-3.93-10.7-8-21.759-10.155-33.313-6.415-34.337,10.889-54.374,38.843-73.9,43.075-30.082,58.307-60.119,45.273-89.275-14.145-31.659-62.96-48.109-100.459-52.575-145.457-17.331-268.075-27.028-393.695-18.065-57.488,4.11-115.825,9.442-172.242,14.6l-20.4,1.865c-75.621,6.891-149.667,13.391-224.114,17.181L435,314c-32.543,1.612-69.425,3.437-97.1,22.117-32.23,21.4-17.531,50.307-4.566,75.806,5.617,11.049,10.924,21.479,12.868,31.241,3.97,19.925-6.185,30.1-16.933,40.875-8.36,8.378-17,17.041-19.516,30.69-5.289,28.74,29.739,52.389,50.667,66.519l1.539,1.039c64.762,43.792,134.05,79.708,211.823,109.8,41.233,15.952,95.335,34.84,148.125,39.336C728.386,731.971,734.054,732.341,739.012,732.341ZM846.86,671.379c-10.8,0-21.6.22-32.345.8-25.914,1.392-40.79,3.412-45.143,28.778-4.874,28.438-13.872,30.82-47.256,27.972-52.472-4.47-106.353-23.284-147.431-39.176-77.6-30.022-146.721-65.851-211.325-109.535l-1.539-1.039c-20.42-13.789-54.6-36.865-49.606-63.994,2.373-12.886,10.738-21.269,18.826-29.376,10.738-10.766,21.847-21.9,17.614-43.131-2.01-10.1-7.392-20.681-13.089-31.887-13.106-25.772-26.655-52.419,3.725-72.592,27.1-18.292,63.616-20.1,95.83-21.7l4.9-.245c74.494-3.792,148.565-10.293,224.211-17.186l20.4-1.865c56.4-5.156,114.731-10.488,172.192-14.593,125.43-8.956,247.9.738,393.217,18.05,36.853,4.39,84.757,20.41,98.476,51.113,12.473,27.9-2.476,56.905-44.425,86.2-24.875,17.371-46.923,38.65-39.867,76.409,2.193,11.759,6.3,22.921,10.265,33.716,5.116,13.917,10.4,28.307,11.564,43.989,2.693,36.357-17.249,50.359-52.607,62.259-23.979,8.07-50.237,9.464-75.628,10.813-7.342.391-14.933.793-22.265,1.354-33.286,2.546-66.94,3.615-99.485,4.646-18.03.571-36.67,1.164-55.1,2-26.983,1.224-54.462.3-81.042-.6C882.494,671.977,864.687,671.379,846.86,671.379Z" transform="translate(-309.214 -276.711)" fill="url(#linear-gradient-2)"/>
  </g>
  <g id="Group_6302" data-name="Group 6302" transform="translate(22.889 454.175)">
    <path id="Path_8115" data-name="Path 8115" d="M729.148,707.531c18.816,0,26.793-5.709,30.8-29.066,3.777-22.027,15.652-23.634,40.007-24.941,26.563-1.424,53.614-.513,79.776.368,24.933.839,50.715,1.71,76.066.556,17.246-.783,34.693-1.334,51.571-1.87,30.5-.969,62.036-1.97,93.252-4.355,6.841-.523,13.937-.9,20.8-1.267,23.937-1.272,48.69-2.588,71.453-10.25,33.376-11.234,53.533-25.321,50.908-60.78-1.114-15.026-6.125-28.665-10.973-41.857-3.682-10.015-7.484-20.368-9.507-31.178-6-32.117,10.188-50.86,36.337-69.123,40.37-28.2,54.642-56.359,42.422-83.7-13.264-29.679-59-45.1-94.131-49.281-136.208-16.232-251.022-25.311-368.654-16.916-53.734,3.835-108.258,8.821-160.988,13.642l-19.394,1.772c-70.807,6.453-140.138,12.54-209.848,16.09l-4.568.228c-30.487,1.507-65.043,3.219-90.977,20.725-30.237,20.08-16.458,47.183-4.3,71.093,5.259,10.34,10.223,20.11,12.042,29.236,3.707,18.618-5.785,28.132-15.834,38.21-7.835,7.852-15.937,15.975-18.3,28.78-4.958,26.968,27.869,49.135,47.484,62.379l1.434.966C436.661,608,501.543,641.637,574.38,669.822c38.613,14.938,89.27,32.63,138.723,36.84C719.181,707.18,724.5,707.531,729.148,707.531Zm100.979-57.253c-10.118,0-20.243.208-30.307.749-24.305,1.3-38.257,3.2-42.342,27.016-4.556,26.565-12.958,28.78-44.164,26.127-49.133-4.188-99.575-21.8-138.03-36.683C502.624,639.369,437.9,605.82,377.425,564.917l-1.437-.969c-19.106-12.9-51.085-34.495-46.42-59.849,2.218-12.045,10.04-19.887,17.6-27.469,10.07-10.1,20.485-20.538,16.515-40.465-1.885-9.467-6.924-19.381-12.263-29.882-12.255-24.1-24.926-49.028,3.462-67.881,25.366-17.121,59.548-18.811,89.708-20.3l4.573-.23c69.758-3.549,139.116-9.637,209.946-16.095l19.4-1.772c52.715-4.818,107.227-9.8,160.936-13.637,117.44-8.393,232.121.688,368.176,16.9,34.488,4.11,79.31,19.1,92.149,47.819,11.657,26.09-2.33,53.216-41.574,80.629-23.314,16.283-43.977,36.232-37.361,71.636,2.058,11.016,5.9,21.471,9.617,31.581,4.786,13.028,9.737,26.5,10.823,41.178,2.518,33.994-16.137,47.09-49.206,58.224-22.44,7.552-47.021,8.858-70.79,10.122-6.876.363-13.987.741-20.856,1.266-31.163,2.383-62.672,3.382-93.142,4.35-16.883.536-34.342,1.089-51.6,1.875-25.254,1.141-50.983.28-75.868-.561C863.489,650.841,846.82,650.278,830.128,650.278Z" transform="translate(-326.602 -280.683)" fill="url(#linear-gradient-2)"/>
  </g>
  <g id="Group_6303" data-name="Group 6303" transform="translate(1.263 78.664)">
    <path id="Path_8116" data-name="Path 8116" d="M703.738,454.756s62.672-19.94,85.513-74.87c17.181-41.321-12.085-68.732-60.424-29.524,0,0,71.773-60.292,37.153-101.412-25.464-30.242-60.935,21.439-60.935,21.439s63.506-84.6,17.439-102.586c-32.725-12.778-45.511,40.33-45.511,40.33S672,121.621,629.331,131.441Z" transform="translate(-550.65 -130.664)" fill="#e6ecef"/>
    <path id="Path_8117" data-name="Path 8117" d="M744.155,130.974s-51.255,2.21-11.224,89.255c0,0-36.192-45.008-62.534-21.862s65.158,89.18,65.158,89.18-50.277-31.767-68.074,3.164S756.1,371.575,756.1,371.575s-44.37-13.542-58.019,10.435,75.463,82.639,120.486,72.279Z" transform="translate(-665.474 -130.197)" fill="#e6ecef"/>
    <path id="Path_8118" data-name="Path 8118" d="M714.266,397.593a209.151,209.151,0,0,0,23.188,7.174,152.763,152.763,0,0,0,18.373,3.289l-16.876-79.273a187.353,187.353,0,0,1-25.056-5.329,192.187,192.187,0,0,1-26.56-9.579,201.176,201.176,0,0,1-24.953-13.059,170.336,170.336,0,0,1-22.783-16.43,169.854,169.854,0,0,0,23.3,15.549,199.611,199.611,0,0,0,25.229,12.052,189.258,189.258,0,0,0,26.55,8.5,178.622,178.622,0,0,0,23.391,4.17l-13.184-61.926A183.385,183.385,0,0,1,700.331,251.2c-4.185-2.183-8.078-4.859-12.1-7.307-3.852-2.711-7.795-5.279-11.477-8.21a212.819,212.819,0,0,1-21.276-18.43A187.418,187.418,0,0,1,636.9,196.207a187.005,187.005,0,0,0,19.289,20.308,211.492,211.492,0,0,0,21.779,17.522c3.747,2.766,7.745,5.164,11.637,7.7,4.06,2.268,7.985,4.766,12.18,6.761a169.758,169.758,0,0,0,22.107,9.557L698.484,138.714l29.344,118.568A183.7,183.7,0,0,0,743.719,240a239.192,239.192,0,0,0,15.82-22.095q7.3-11.5,13.564-23.639c4.15-8.092,8.012-16.35,11.344-24.831-3.014,8.6-6.571,17.011-10.425,25.281q-5.812,12.4-12.736,24.255a241.311,241.311,0,0,1-15.146,22.913,192.119,192.119,0,0,1-17.188,19.937l15.321,61.911A120.7,120.7,0,0,0,764.155,311.6a178.7,178.7,0,0,0,20.06-18.308,237.038,237.038,0,0,0,17.336-21.076,227.078,227.078,0,0,0,14.831-22.988A226.626,226.626,0,0,1,802.387,272.8a238.127,238.127,0,0,1-16.653,21.862,181.547,181.547,0,0,1-19.674,19.344,123.92,123.92,0,0,1-20.808,13.677l19.411,78.429a208.663,208.663,0,0,0,17.749-12C789.556,388.7,796.527,383,803.13,376.89q9.953-9.113,19.2-19c6.14-6.6,12.077-13.4,17.624-20.523-5.274,7.329-10.961,14.363-16.863,21.206q-8.876,10.254-18.558,19.8c-6.41,6.4-13.216,12.405-20.237,18.162a215.338,215.338,0,0,1-18.651,13.574L788.3,501.618l-11.965,2.753-19.647-92.289a156.85,156.85,0,0,1-20.017-4.35,211.622,211.622,0,0,1-23.156-8.238q-11.3-4.787-22.107-10.565c-7.186-3.865-14.235-7.99-20.993-12.538,6.941,4.26,14.143,8.077,21.457,11.627Q702.858,393.316,714.266,397.593Z" transform="translate(-615.342 -118.563)" fill="#b2c3ce"/>
  </g>
  <g id="Group_6304" data-name="Group 6304" transform="translate(584.796 88.143)">
    <path id="Path_8119" data-name="Path 8119" d="M512.168,380.3S464.627,365.173,447.3,323.5c-13.034-31.344,9.166-52.139,45.836-22.4,0,0-54.444-45.736-28.182-76.93,19.314-22.941,46.224,16.263,46.224,16.263S463,176.266,497.948,162.621c24.826-9.692,34.525,30.6,34.525,30.6s3.77-65.626,36.14-58.177Z" transform="translate(-443.541 -134.451)" fill="#e6ecef"/>
    <path id="Path_8120" data-name="Path 8120" d="M476.14,134.686s38.88,1.677,8.513,67.706c0,0,27.456-34.142,47.438-16.583s-49.428,67.648-49.428,67.648,38.14-24.095,51.641,2.4-67.22,61.34-67.22,61.34,33.656-10.273,44.012,7.917-57.245,62.687-91.4,54.828Z" transform="translate(-351.069 -134.097)" fill="#e6ecef"/>
    <path id="Path_8121" data-name="Path 8121" d="M521.576,336.939a158.393,158.393,0,0,1-17.589,5.439,115.024,115.024,0,0,1-13.937,2.5l12.8-60.134a141.823,141.823,0,0,0,19.006-4.042,145.474,145.474,0,0,0,20.15-7.266,152.828,152.828,0,0,0,18.928-9.9,129.074,129.074,0,0,0,17.284-12.465,128.83,128.83,0,0,1-17.677,11.795A151.623,151.623,0,0,1,541.406,272a143.822,143.822,0,0,1-20.142,6.448,135.327,135.327,0,0,1-17.744,3.161l10-46.975a139.093,139.093,0,0,0,18.625-8.743c3.174-1.657,6.13-3.687,9.179-5.542,2.921-2.058,5.912-4,8.706-6.228a161.674,161.674,0,0,0,16.137-13.982,142.17,142.17,0,0,0,14.1-15.967,141.9,141.9,0,0,1-14.63,15.406,161.414,161.414,0,0,1-16.523,13.291c-2.844,2.1-5.875,3.917-8.826,5.84-3.081,1.722-6.057,3.617-9.241,5.131a128.751,128.751,0,0,1-16.771,7.249l19.274-90.531L511.289,230.5a139.78,139.78,0,0,1-12.055-13.109,181.7,181.7,0,0,1-12-16.761q-5.534-8.722-10.29-17.932c-3.146-6.14-6.078-12.4-8.606-18.836,2.285,6.523,4.984,12.9,7.91,19.179s6.165,12.405,9.662,18.4A183.249,183.249,0,0,0,497.4,218.823a146.005,146.005,0,0,0,13.041,15.124l-11.624,46.965a91.783,91.783,0,0,1-15.081-9.2,135.727,135.727,0,0,1-15.216-13.89,179.587,179.587,0,0,1-13.151-15.99,171.614,171.614,0,0,1-11.251-17.436,172.086,172.086,0,0,0,10.616,17.882,180.605,180.605,0,0,0,12.633,16.585,137.74,137.74,0,0,0,14.926,14.673,93.983,93.983,0,0,0,15.784,10.375l-14.726,59.5a159.084,159.084,0,0,1-13.464-9.1c-5.419-4.113-10.706-8.43-15.717-13.069q-7.551-6.912-14.568-14.41c-4.656-5-9.161-10.163-13.369-15.567,4,5.559,8.315,10.893,12.793,16.087s9.189,10.19,14.077,15.016c4.861,4.853,10.025,9.412,15.351,13.777a162.528,162.528,0,0,0,14.147,10.3l-17.181,69.415,9.076,2.09L489.4,347.93a119.771,119.771,0,0,0,15.184-3.3,160.641,160.641,0,0,0,17.564-6.25q8.572-3.631,16.771-8.015c5.452-2.931,10.8-6.06,15.927-9.512-5.266,3.234-10.728,6.128-16.278,8.821S527.336,334.776,521.576,336.939Z" transform="translate(-411.861 -125.272)" fill="#b2c3ce"/>
  </g>
  <g id="Group_6305" data-name="Group 6305" transform="translate(721.232 150.791)">
    <path id="Path_8122" data-name="Path 8122" d="M329.726,409.274c12.448,15.787,32.1,25.667,52.237,27.677,23.386,2.355,47.133-5.054,66.852-17.852.583-.37,1.166-.743,1.735-1.159-4.27-.786-8.521-1.677-12.773-2.566-19.359-4.148-39.774-9.171-55.611-20.458a190.869,190.869,0,0,0,91.53,4.178,164.806,164.806,0,0,0,30.69-41.443,106.011,106.011,0,0,1-12.12,4.546c-27.509,8.5-57.028,4.926-84.97-3.184a382.792,382.792,0,0,0,108.318-28.3,160.069,160.069,0,0,0,7.256-40.047,106.629,106.629,0,0,0-11.449,10.29c-6.816,7.229-12.475,15.844-20.978,20.973-11.494,6.986-25.949,6.258-39.333,4.888q-10.239-1.078-20.51-2.518c8.443-1.842,16.858-3.85,25.208-6.085a147.145,147.145,0,0,0,21.955-7.2c17.677-7.757,31.989-21.078,45.151-35.444a148.474,148.474,0,0,0-3.492-25.481,198.1,198.1,0,0,1-65.383,31.281,312.133,312.133,0,0,0,61.593-44.938,143.321,143.321,0,0,0-8.953-21.532,147.451,147.451,0,0,1-61.558,34.65,194.057,194.057,0,0,0,52.75-49.614,174.829,174.829,0,0,0-10.5-14.583,88.65,88.65,0,0,1-13.514,10.433,93.423,93.423,0,0,1-13.134,6.631,142.012,142.012,0,0,0,19.639-25.554,199.114,199.114,0,0,0-15.96-16.278Z" transform="translate(-249.39 -157.817)" fill="#e6ecef"/>
    <path id="Path_8123" data-name="Path 8123" d="M433.439,410.936c-10.7,1.5-29.1-3.579-38.252-9.3a87.4,87.4,0,0,1-26.272-24.725c-13.329-19.587-16.723-44.4-15.617-68.161a122.609,122.609,0,0,0,25.256,23.221c9.8,6.718,20.473,11.965,31.176,17.151-9.637-12.588-18.137-26.355-29.2-37.724-3.895-4.017-8.1-7.745-11.822-11.937a68.981,68.981,0,0,1-12.02-19.184c3.607-18.433,10.092-36.26,19.859-52.042a177.149,177.149,0,0,0,7.3,25.787c3.3,9.422,6.921,18.943,13.061,26.848a66.625,66.625,0,0,0,16.951,14.868,101.452,101.452,0,0,1-8.848-14.6c-11.184-22.7-11.8-48.915-11.779-74.329a137.706,137.706,0,0,1,21.569-17.98,134.231,134.231,0,0,0,29.163,87.483c-1.529-4.15-2.8-8.428-4.06-12.658-4.022-13.439-8.057-26.926-9.842-40.833a200.652,200.652,0,0,1-1.4-25.684,87.146,87.146,0,0,1,.608-12.688,44.071,44.071,0,0,1,.936-4.761,174.515,174.515,0,0,1,25.867-11.034c-3.191,10.756-5.054,21.809-4.188,32.968a104.124,104.124,0,0,0,3.935,20.225,160.812,160.812,0,0,0,16.14,38.858c-10.465-31.854-9.642-67.636,4.413-97.815A143.084,143.084,0,0,1,496.074,160a103.445,103.445,0,0,0-4.816,39.343,103.37,103.37,0,0,1,17.266-39.854c7.409-.073,14.788.258,22.255.713a84.852,84.852,0,0,0-3.965,24.8,83.182,83.182,0,0,1,12.733-24.217c9.2.633,18.658,1.287,28.565,1.459Z" transform="translate(-353.103 -159.479)" fill="#e6ecef"/>
    <path id="Path_8124" data-name="Path 8124" d="M447.435,364.592c5.164,1.019,10.285,2.225,15.477,3.089,10.343,1.935,20.761,3.414,31.2,4.621,10.455,1.109,20.943,1.892,31.446,2.158a234.773,234.773,0,0,0,31.456-1.061,234.3,234.3,0,0,1-31.426.223c-10.465-.543-20.893-1.6-31.271-2.984-10.365-1.479-20.69-3.226-30.921-5.424-5.136-1-10.2-2.335-15.3-3.482l-11.5-3.016L451.813,329.5a179.273,179.273,0,0,0,20.483,3.264,230.308,230.308,0,0,0,23.081,1.129,277.825,277.825,0,0,0,45.892-3.742,277.163,277.163,0,0,1-45.859,2.063,227.631,227.631,0,0,1-22.816-1.95,174.257,174.257,0,0,1-19.229-3.745l14.51-27.859a142.525,142.525,0,0,0,27.812.636,170.386,170.386,0,0,0,29.264-4.781,215.348,215.348,0,0,0,28.14-9.169,200.792,200.792,0,0,0,26.553-12.974,200.182,200.182,0,0,1-26.78,12.388,214.528,214.528,0,0,1-28.2,8.531,168.86,168.86,0,0,1-29.091,4.12,138.377,138.377,0,0,1-26.47-1.1l15.294-29.366a138.632,138.632,0,0,0,23.647-3.522,158.894,158.894,0,0,0,23.819-7.609,193.633,193.633,0,0,0,22.5-10.8A175.776,175.776,0,0,0,575.19,231.35a175.191,175.191,0,0,1-21.134,13.111A192.438,192.438,0,0,1,531.4,254.639a157.3,157.3,0,0,1-23.772,6.941,131.88,131.88,0,0,1-21.9,2.791l15.932-30.6a171.97,171.97,0,0,0,29.008-14.11,164.8,164.8,0,0,0,26.3-19.559,164.311,164.311,0,0,1-26.728,18.838,170.742,170.742,0,0,1-27.439,12.635L530.66,178.1l-39.386,70a107.236,107.236,0,0,1-5.169-17.649c-.824-3.389-1.154-6.863-1.7-10.308-.27-3.472-.691-6.944-.7-10.435a127.764,127.764,0,0,1,1.024-20.9,115.825,115.825,0,0,1,4.445-20.48,115.692,115.692,0,0,0-4.858,20.423,128.113,128.113,0,0,0-1.449,20.978c-.06,3.514.293,7.019.5,10.525.476,3.482.743,7,1.507,10.44A113.194,113.194,0,0,0,490.205,250L474.591,277.75a146.368,146.368,0,0,1-11.2-24.047,141.338,141.338,0,0,1-7.234-28.64,147,147,0,0,1-1.522-29.576,131.076,131.076,0,0,1,4.448-29.321,131.288,131.288,0,0,0-5.076,29.286,147.964,147.964,0,0,0,.9,29.784,143.163,143.163,0,0,0,6.7,29.091c2.869,9.054,7.066,17.6,11.552,25.969l-14.245,25.319-3.031-3.977-2.521-3.307-2.275-3.482-4.536-6.986-4.042-7.289a193.089,193.089,0,0,1-13.266-30.613,236.447,236.447,0,0,1-8.513-32.362,216.876,216.876,0,0,1-3.74-33.308,217.412,217.412,0,0,0,2.914,33.454,237.5,237.5,0,0,0,7.745,32.738,195.261,195.261,0,0,0,12.628,31.258l3.92,7.494,4.425,7.214,2.23,3.6,2.483,3.432,3.815,5.269-8.631,15.341a163.069,163.069,0,0,1-19.684-18.743,197.737,197.737,0,0,1-18.44-24.115,245.446,245.446,0,0,1-15.076-26.453,224.607,224.607,0,0,1-11.609-28.2,224.93,224.93,0,0,0,10.848,28.56,247.3,247.3,0,0,0,14.42,27A200.1,200.1,0,0,0,426.935,307a168.169,168.169,0,0,0,19.945,20l-9.895,17.582c-3.289-1.992-6.593-3.965-9.82-6.062-4.063-2.746-8.238-5.339-12.17-8.28-8.065-5.607-15.669-11.842-23.156-18.207a286.909,286.909,0,0,1-21.2-20.5,194.414,194.414,0,0,1-18.6-22.918A194.754,194.754,0,0,0,370.012,292.1a287.53,287.53,0,0,0,20.706,21.184c7.341,6.611,14.823,13.106,22.788,18.986,3.88,3.076,8.01,5.81,12.032,8.7,3.229,2.233,6.543,4.338,9.842,6.47L415.138,383.42a90.093,90.093,0,0,1-20.936-7.935A131.007,131.007,0,0,1,372.861,360.5a181.871,181.871,0,0,1-33.721-40.107,182.723,182.723,0,0,0,32.6,41.353,132.926,132.926,0,0,0,21.229,15.935,92.994,92.994,0,0,0,20.533,8.648l-35.426,62.96,8.856,4.8,33.621-64.559a126.468,126.468,0,0,0,15.176,8.916,136.9,136.9,0,0,0,20,8.25,145.378,145.378,0,0,0,20.926,5.266,125.636,125.636,0,0,0,21.414,2.07,125.486,125.486,0,0,1-21.254-2.893,143.992,143.992,0,0,1-20.533-6.028,134.731,134.731,0,0,1-19.384-8.893,124.936,124.936,0,0,1-14.856-9.557l13-24.963Z" transform="translate(-329.68 -149.429)" fill="#b2c3ce"/>
  </g>
  <g id="Group_6308" data-name="Group 6308" transform="translate(381.341 642.067)">
    <g id="Group_6306" data-name="Group 6306" transform="translate(186.009)">
      <path id="Path_8125" data-name="Path 8125" d="M535.094,355.748,496.485,400.02l-19.037-32.973Z" transform="translate(-477.448 -355.747)" fill="#d8e1e5"/>
      <path id="Path_8126" data-name="Path 8126" d="M493.275,355.747l-10.6,12.155-5.227-9.053Z" transform="translate(-435.629 -355.747)" fill="#2a3b42"/>
    </g>
    <path id="Path_8127" data-name="Path 8127" d="M673.33,360.81c2.46-1.429,5.867-1.226,9.622.941,7.451,4.3,13.469,14.723,13.444,23.321-.01,4.255-1.512,7.246-3.932,8.656L510.394,499.676c2.423-1.407,3.922-4.4,3.935-8.653.025-8.6-5.992-19.018-13.444-23.321-3.755-2.168-7.161-2.373-9.622-.941Z" transform="translate(-487.321 -349.509)" fill="url(#linear-gradient-4)"/>
    <g id="Group_6307" data-name="Group 6307" transform="translate(0 116.338)">
      <path id="Path_8128" data-name="Path 8128" d="M577.564,404.079c-7.454-4.3-13.539-.869-13.564,7.729-.023,8.563,6.022,19,13.476,23.3s13.507.851,13.532-7.712C591.033,418.8,585.016,408.382,577.564,404.079Z" transform="translate(-564 -402.225)" fill="url(#linear-gradient-4)"/>
    </g>
  </g>
  <g id="Group_6311" data-name="Group 6311" transform="translate(158.015 0)">
    <g id="Group_6309" data-name="Group 6309" transform="translate(0)">
      <path id="Path_8129" data-name="Path 8129" d="M555.17,603.166,759.106,485.424V115.037L555.17,232.779Z" transform="translate(-486.67 -75.488)" fill="#ff7419"/>
      <path id="Path_8130" data-name="Path 8130" d="M636.644,516.664l68.5,39.548V185.825l-68.5-39.549Z" transform="translate(-636.644 -28.533)" fill="#b2c3ce"/>
      <path id="Path_8131" data-name="Path 8131" d="M641.681,344.645l43.285,24.991V207.224l-43.285-24.991Z" transform="translate(-629.074 25.513)" fill="#f9fbfc"/>
      <path id="Path_8132" data-name="Path 8132" d="M568.722,224.8l-13.552-7.825L759.106,99.237l13.552,7.824L582.274,216.979l41.4,23.9L814.054,130.961l13.552,7.825L623.67,256.528,610.118,248.7h0l-41.4-23.9Z" transform="translate(-555.17 -99.237)" fill="#e6ecef"/>
      <path id="Path_8133" data-name="Path 8133" d="M642.852,280.562c0,11.932,8.378,26.44,18.71,32.4s18.711,1.131,18.711-10.8-8.378-26.44-18.711-32.407S642.852,268.63,642.852,280.562Z" transform="translate(-627.312 153.232)" fill="#f9fbfc"/>
      <path id="Path_8134" data-name="Path 8134" d="M767.506,102.363v47.8L618.519,236.18l-41.4-23.9Z" transform="translate(-550.019 -94.538)" fill="#b2c3ce"/>
      <path id="Path_8135" data-name="Path 8135" d="M782.743,129.959l-41.4-23.9L566.986,206.724l41.4,23.9Z" transform="translate(-539.882 -88.982)" fill="#f9fbfc"/>
    </g>
    <g id="Group_6310" data-name="Group 6310" transform="translate(68.5 39.549)">
      <path id="Path_8136" data-name="Path 8136" d="M527.8,618.967,731.74,501.225V130.837L527.8,248.579Z" transform="translate(-459.304 -91.288)" fill="url(#linear-gradient-6)"/>
      <path id="Path_8137" data-name="Path 8137" d="M609.278,532.463l68.5,39.549V201.624l-68.5-39.548Z" transform="translate(-609.278 -44.334)" fill="url(#linear-gradient-7)"/>
      <path id="Path_8138" data-name="Path 8138" d="M614.314,360.445,657.6,385.436V223.023l-43.286-24.991Z" transform="translate(-601.707 9.712)" fill="url(#linear-gradient-8)"/>
      <path id="Path_8139" data-name="Path 8139" d="M541.356,224.954h0L731.739,115.037l13.552,7.824L554.908,232.778l41.4,23.9L786.688,146.761l13.552,7.824L609.856,264.5h0L596.3,272.327l-68.5-39.548Z" transform="translate(-527.804 -115.037)" fill="url(#linear-gradient-9)"/>
      <path id="Path_8140" data-name="Path 8140" d="M615.486,296.362c0,11.932,8.378,26.44,18.711,32.4s18.71,1.131,18.71-10.8-8.378-26.44-18.71-32.407S615.486,284.43,615.486,296.362Z" transform="translate(-599.947 137.432)" fill="url(#linear-gradient-8)"/>
      <path id="Path_8141" data-name="Path 8141" d="M740.14,118.163v47.8L591.152,251.981l-41.4-23.9Z" transform="translate(-522.652 -110.338)" fill="url(#linear-gradient-9)"/>
      <path id="Path_8142" data-name="Path 8142" d="M755.376,145.759l-41.4-23.9L539.619,222.525l41.4,23.9Z" transform="translate(-512.515 -104.782)" fill="#f9fbfc"/>
    </g>
  </g>
  <g id="Group_6326" data-name="Group 6326" transform="translate(255.774 98.028)">
    <g id="Group_6320" data-name="Group 6320" transform="translate(0)">
      <g id="Group_6315" data-name="Group 6315" transform="translate(180.157)" style="isolation: isolate">
        <g id="Group_6312" data-name="Group 6312" transform="translate(0 104.021)">
          <path id="Path_8143" data-name="Path 8143" d="M549.536,179.957l.933,343.631,7.691,4.47-.933-343.631Z" transform="translate(-549.536 -179.957)" fill="#3c9"/>
        </g>
        <g id="Group_6313" data-name="Group 6313" transform="translate(7.691 4.469)">
          <path id="Path_8144" data-name="Path 8144" d="M477.557,244.206l.933,343.631L658.659,483.817l-.933-343.631Z" transform="translate(-477.557 -140.185)" fill="#576a7a"/>
        </g>
        <g id="Group_6314" data-name="Group 6314" transform="translate(0)">
          <path id="Path_8145" data-name="Path 8145" d="M477.93,242.42l7.691,4.47L665.789,142.869,658.1,138.4Z" transform="translate(-477.93 -138.4)" fill="#425460"/>
        </g>
      </g>
      <g id="Group_6319" data-name="Group 6319" transform="translate(0 104.021)" style="isolation: isolate">
        <g id="Group_6316" data-name="Group 6316" transform="translate(0 104.014)">
          <path id="Path_8146" data-name="Path 8146" d="M621.51,221.511l.933,343.632,7.691,4.469L629.2,225.98Z" transform="translate(-621.51 -221.511)" fill="#425460"/>
        </g>
        <g id="Group_6317" data-name="Group 6317" transform="translate(7.691 4.469)">
          <path id="Path_8147" data-name="Path 8147" d="M549.536,285.756l.932,343.632L730.625,525.374l-.933-343.631Z" transform="translate(-549.536 -181.742)" fill="#576a7a"/>
        </g>
        <g id="Group_6318" data-name="Group 6318" transform="translate(0)">
          <path id="Path_8148" data-name="Path 8148" d="M549.908,283.97l7.691,4.469L737.756,184.426l-7.691-4.47Z" transform="translate(-549.908 -179.957)" fill="#425460"/>
        </g>
      </g>
    </g>
    <g id="Group_6323" data-name="Group 6323" transform="translate(16.756 221.945)">
      <g id="Group_6322" data-name="Group 6322" transform="translate(0)" style="isolation: isolate">
        <g id="Group_6321" data-name="Group 6321">
          <path id="Path_8149" data-name="Path 8149" d="M606.609,227.068l.916,322.976,28.251,16.417-.916-322.976Z" transform="translate(-606.609 -227.068)" fill="#94a6b2"/>
        </g>
      </g>
    </g>
    <g id="Group_6324" data-name="Group 6324" transform="translate(187.849 24.379)">
      <path id="Path_8150" data-name="Path 8150" d="M470.265,246.926c15.6,9.066,40.98,9.066,56.685,0l142.668-82.371-28.25-16.415Z" transform="translate(-470.265 -148.139)" fill="#b2c3ce"/>
    </g>
    <path id="Path_8151" data-name="Path 8151" d="M526.584,237.068,669.252,154.7l.916,322.978L527.5,560.043c-15.7,9.069-41.083,9.069-56.685,0L469.9,237.068C485.5,246.135,510.879,246.135,526.584,237.068Z" transform="translate(-282.05 -113.903)" fill="#e6ecef"/>
    <path id="Path_8152" data-name="Path 8152" d="M687.547,210.648c7.9-4.563,11.85-10.55,11.832-16.53l.916,322.975c.017,5.98-3.93,11.97-11.832,16.533L545.805,615.987l-.916-322.975Z" transform="translate(-499.884 -54.65)" fill="#d8e1e5"/>
    <g id="Group_6325" data-name="Group 6325" transform="translate(16.756 123.165)">
      <path id="Path_8153" data-name="Path 8153" d="M545.255,286.384,573.5,302.8l142.658-82.364c15.7-9.066,15.787-23.767.185-32.833Z" transform="translate(-545.255 -187.605)" fill="#b2c3ce"/>
    </g>
    <path id="Path_8154" data-name="Path 8154" d="M670.545,360.893l-117.89,68.064-.01-3.89L670.535,357Zm.078,27.334L552.733,456.29l-.01-3.89,117.89-68.064Zm.077,27.334L552.81,483.624l-.01-3.89L670.69,411.67Zm.078,27.334-117.89,68.064-.013-3.89L670.768,439Zm-.543-191.335-117.89,68.066-.01-3.892,117.89-68.064Zm.078,27.334-117.89,68.066-.01-3.892L670.3,275Zm-.165-58.557.012,3.89L552.267,292.291l-.01-3.892Zm.243,85.891L552.5,374.289l-.01-3.89,117.89-68.064Zm.078,27.334-117.89,68.064-.01-3.89,117.89-68.064Z" transform="translate(-488.809 -15.244)" fill="#94a6b2"/>
    <path id="Path_8155" data-name="Path 8155" d="M597.642,319.53l-117.89,68.064-.01-3.89,117.89-68.064Zm.08,27.334L479.83,414.927l-.01-3.89,117.89-68.064ZM597.8,374.2l-117.89,68.064-.01-3.89,117.89-68.064Zm.078,27.334-117.89,68.064-.01-3.89,117.89-68.064ZM597.334,210.2l-117.89,68.064-.012-3.892,117.89-68.064Zm.078,27.334L479.519,305.6l-.01-3.892L597.4,233.639Zm-.168-58.56.012,3.89L479.364,250.928l-.01-3.892Zm.245,85.891L479.6,332.926l-.01-3.89,117.89-68.064Zm.078,27.334L479.674,360.26l-.01-3.89,117.89-68.064Z" transform="translate(-233.424 -77.416)" fill="#94a6b2"/>
  </g>
  <g id="Group_6330" data-name="Group 6330" transform="translate(40.894 648.163)">
    <g id="Group_6327" data-name="Group 6327" transform="translate(0)">
      <path id="Path_8156" data-name="Path 8156" d="M595.937,388.982,762.077,485.53a12.733,12.733,0,0,0,11.567-.015l110.894-64.024c1.615-.931,2.42-2.15,2.418-3.364l.055,19.977c0,1.216-.8,2.435-2.416,3.367L773.7,505.495a12.738,12.738,0,0,1-11.569.015l-166.14-96.549a4.043,4.043,0,0,1-2.365-3.314l-.058-19.977A4.046,4.046,0,0,0,595.937,388.982Z" transform="translate(-593.569 -316.868)" fill="#425460"/>
      <path id="Path_8157" data-name="Path 8157" d="M596.021,423.6c-3.207,1.852-3.252,4.848-.062,6.7L762.1,526.846a12.733,12.733,0,0,0,11.567-.015l110.894-64.024c3.209-1.852,3.224-4.833.038-6.686l-166.14-96.549a12.68,12.68,0,0,0-11.542,0Z" transform="translate(-593.591 -358.183)" fill="#576a7a"/>
    </g>
    <g id="Group_6329" data-name="Group 6329" transform="translate(33.172 19.438)">
      <path id="Path_8158" data-name="Path 8158" d="M687.249,435.358l81.733-47.188c2.813-1.624,2.46-4.46-.786-6.335L743.368,367.5c-3.249-1.875-8.162-2.078-10.976-.456l-81.733,47.191c-2.811,1.624-2.461,4.46.788,6.335L676.275,434.9C679.522,436.779,684.438,436.982,687.249,435.358Z" transform="translate(-648.76 -365.948)" fill="#b2c3ce"/>
      <g id="Group_6328" data-name="Group 6328" transform="translate(48.273 27.871)">
        <path id="Path_8159" data-name="Path 8159" d="M678.62,408.952l-16.042,9.261a12.09,12.09,0,0,1-10.949,0l-16.042-9.261c-3.024-1.745-3.024-4.576,0-6.32l16.042-9.264a12.106,12.106,0,0,1,10.949,0l16.042,9.264C681.643,404.376,681.643,407.207,678.62,408.952Z" transform="translate(-568.389 -354.573)" fill="url(#linear-gradient-4)"/>
        <path id="Path_8160" data-name="Path 8160" d="M678.622,393.976l-16.045,9.261a12.106,12.106,0,0,1-10.949,0l-16.042-9.261c-3.024-1.747-3.024-4.576,0-6.32l16.045-9.264a12.1,12.1,0,0,1,10.946,0l16.045,9.264C681.643,389.4,681.643,392.229,678.622,393.976Z" transform="translate(-568.389 -377.083)" fill="url(#linear-gradient-4)"/>
        <path id="Path_8161" data-name="Path 8161" d="M652.681,408.952l-16.045,9.261a12.085,12.085,0,0,1-10.946,0l-16.045-9.261c-3.021-1.747-3.021-4.576,0-6.32l16.045-9.264a12.106,12.106,0,0,1,10.949,0l16.042,9.264C655.7,404.376,655.7,407.2,652.681,408.952Z" transform="translate(-477.52 -354.573)" fill="url(#linear-gradient-4)"/>
        <path id="Path_8162" data-name="Path 8162" d="M665.65,401.464l-16.042,9.261a12.09,12.09,0,0,1-10.949,0l-16.045-9.261c-3.021-1.747-3.021-4.576,0-6.32l16.045-9.264a12.106,12.106,0,0,1,10.949,0l16.045,9.264C668.674,396.888,668.674,399.717,665.65,401.464Z" transform="translate(-522.955 -365.828)" fill="url(#linear-gradient-4)"/>
        <path id="Path_8163" data-name="Path 8163" d="M665.651,416.44,649.608,425.7a12.09,12.09,0,0,1-10.948,0l-16.045-9.261c-3.021-1.745-3.021-4.576,0-6.32l16.045-9.264a12.1,12.1,0,0,1,10.946,0l16.045,9.264C668.674,411.864,668.674,414.7,665.651,416.44Z" transform="translate(-522.955 -343.318)" fill="url(#linear-gradient-4)"/>
        <path id="Path_8164" data-name="Path 8164" d="M688.517,393.368l16.045,9.264c3.021,1.745,3.021,4.576,0,6.32l-16.045,9.261a12.085,12.085,0,0,1-10.946,0l-16.045-9.261c-3.024-1.745-3.024-4.576,0-6.32l16.045-9.264A12.1,12.1,0,0,1,688.517,393.368Z" transform="translate(-659.259 -354.573)" fill="url(#linear-gradient-4)"/>
        <path id="Path_8165" data-name="Path 8165" d="M691.592,416.44,675.547,425.7a12.09,12.09,0,0,1-10.949,0l-16.042-9.261c-3.024-1.745-3.024-4.576,0-6.32l16.045-9.264a12.1,12.1,0,0,1,10.946,0l16.045,9.264C694.613,411.864,694.613,414.7,691.592,416.44Z" transform="translate(-613.824 -343.318)" fill="url(#linear-gradient-9)"/>
        <path id="Path_8166" data-name="Path 8166" d="M691.592,401.464l-16.045,9.261a12.084,12.084,0,0,1-10.946,0l-16.045-9.261c-3.024-1.747-3.024-4.576,0-6.32L664.6,385.88a12.1,12.1,0,0,1,10.946,0l16.045,9.264C694.613,396.888,694.613,399.717,691.592,401.464Z" transform="translate(-613.824 -365.828)" fill="url(#linear-gradient-4)"/>
        <path id="Path_8167" data-name="Path 8167" d="M678.62,423.928l-16.042,9.264a12.106,12.106,0,0,1-10.949,0l-16.042-9.264c-3.024-1.745-3.024-4.576,0-6.32l16.042-9.264a12.105,12.105,0,0,1,10.949,0l16.042,9.264C681.643,419.352,681.643,422.183,678.62,423.928Z" transform="translate(-568.389 -332.063)" fill="url(#linear-gradient-9)"/>
      </g>
    </g>
  </g>
  <g id="Group_6333" data-name="Group 6333" transform="translate(276.547 519.195)">
    <g id="Group_6331" data-name="Group 6331">
      <path id="Path_8168" data-name="Path 8168" d="M474.747,480.647l42.392,24.475L810.87,335.536l-42.392-24.475Z" transform="translate(-455.66 -300.042)" fill="#d8e1e5"/>
      <path id="Path_8169" data-name="Path 8169" d="M785.415,306.659,491.683,476.245l19.086,11.02L804.5,317.678Z" transform="translate(-491.683 -306.659)" fill="#94a6b2"/>
    </g>
    <path id="Path_8170" data-name="Path 8170" d="M768.478,331.4,474.747,500.986V490.425L768.478,320.839Z" transform="translate(-413.268 -285.345)" fill="#e6ecef"/>
    <path id="Path_8171" data-name="Path 8171" d="M592.095,374.41,653.573,409.9v10.561l-61.478-35.494Z" transform="translate(-592.094 -204.824)" fill="#94a6b2"/>
    <g id="Group_6332" data-name="Group 6332" transform="translate(52.794 36.439)">
      <path id="Path_8172" data-name="Path 8172" d="M560.406,369.751l12.056,6.96,3.874-2.237-12.056-6.961Z" transform="translate(-488.331 -251.629)" fill="#94a6b2"/>
      <path id="Path_8173" data-name="Path 8173" d="M551.84,363.018l19.8,11.434,3.874-2.237-19.8-11.434Z" transform="translate(-466.072 -261.749)" fill="#94a6b2"/>
      <path id="Path_8174" data-name="Path 8174" d="M543.274,359.859l12.056,6.96,3.874-2.237-12.056-6.96Z" transform="translate(-428.317 -266.496)" fill="#94a6b2"/>
      <path id="Path_8175" data-name="Path 8175" d="M568.971,372.909l19.8,11.434,3.874-2.237-19.8-11.434Z" transform="translate(-526.086 -246.882)" fill="#94a6b2"/>
      <path id="Path_8176" data-name="Path 8176" d="M586.1,382.8l19.8,11.434L609.783,392l-19.8-11.434Z" transform="translate(-586.105 -232.014)" fill="#94a6b2"/>
      <path id="Path_8177" data-name="Path 8177" d="M577.537,379.641l12.056,6.961,3.874-2.237-12.056-6.96Z" transform="translate(-548.344 -236.762)" fill="#94a6b2"/>
      <path id="Path_8178" data-name="Path 8178" d="M534.708,353.127l19.8,11.434,3.874-2.237-19.8-11.434Z" transform="translate(-406.059 -276.616)" fill="#94a6b2"/>
      <path id="Path_8179" data-name="Path 8179" d="M491.878,330.187l12.056,6.96,3.875-2.237-12.056-6.96Z" transform="translate(-248.274 -311.097)" fill="#94a6b2"/>
      <path id="Path_8180" data-name="Path 8180" d="M483.313,323.453l19.8,11.434,3.874-2.237-19.8-11.434Z" transform="translate(-226.016 -321.217)" fill="#94a6b2"/>
      <path id="Path_8181" data-name="Path 8181" d="M526.142,349.969l12.056,6.96,3.874-2.237-12.056-6.96Z" transform="translate(-368.304 -281.363)" fill="#94a6b2"/>
      <path id="Path_8182" data-name="Path 8182" d="M500.444,333.345l19.8,11.434,3.874-2.237-19.8-11.434Z" transform="translate(-286.029 -306.35)" fill="#94a6b2"/>
      <path id="Path_8183" data-name="Path 8183" d="M517.576,343.236l19.8,11.434,3.875-2.237L521.45,341Z" transform="translate(-346.045 -291.483)" fill="#94a6b2"/>
      <path id="Path_8184" data-name="Path 8184" d="M509.01,340.078l12.056,6.96,3.874-2.237-12.056-6.96Z" transform="translate(-308.287 -296.23)" fill="#94a6b2"/>
    </g>
  </g>
  <g id="Group_6335" data-name="Group 6335" transform="translate(52.081 385.264)">
    <g id="Group_6334" data-name="Group 6334" transform="translate(0 93.449)">
      <path id="Path_8185" data-name="Path 8185" d="M664.229,391.875l-18.132-81.7H796.252l-18.132,81.7Z" transform="translate(-645.482 -260.89)" fill="#b2c3ce"/>
      <path id="Path_8186" data-name="Path 8186" d="M668.02,365.092c29.561,17.066,77.488,17.066,107.049,0s29.561-44.737,0-61.8-77.488-17.066-107.049,0S638.461,348.023,668.02,365.092Z" transform="translate(-645.851 -290.487)" fill="#e6ecef"/>
      <path id="Path_8187" data-name="Path 8187" d="M717.01,365.807c18.916,0,36.583-4.188,49.751-11.787,11.862-6.851,18.393-15.5,18.393-24.365s-6.531-17.517-18.393-24.365c-13.169-7.6-30.835-11.787-49.751-11.787s-36.58,4.188-49.749,11.787c-11.862,6.848-18.393,15.5-18.393,24.367s6.531,17.512,18.393,24.362C680.429,361.619,698.1,365.807,717.01,365.807Z" transform="translate(-641.317 -285.953)" fill="#b2c3ce"/>
      <path id="Path_8188" data-name="Path 8188" d="M665.586,313.239c13.169-7.6,30.835-11.789,49.749-11.789s36.583,4.188,49.751,11.789c7.344,4.24,12.631,9.174,15.6,14.418-2.974,5.244-8.26,10.177-15.6,14.42-13.169,7.6-30.835,11.787-49.751,11.787s-36.58-4.188-49.749-11.787c-7.344-4.24-12.633-9.174-15.6-14.418C652.953,322.412,658.242,317.479,665.586,313.239Z" transform="translate(-639.643 -274.009)" fill="#576a7a"/>
      <ellipse id="Ellipse_263" data-name="Ellipse 263" cx="57.414" cy="33.148" rx="57.414" ry="33.148" transform="translate(18.28 93.601)" fill="#b2c3ce"/>
    </g>
    <path id="Path_8189" data-name="Path 8189" d="M684.064,291.2v50.935a2.479,2.479,0,0,1-1.457,2.035,7.8,7.8,0,0,1-7.046,0,2.483,2.483,0,0,1-1.459-2.035V291.2Z" transform="translate(-603.391 -195.96)" fill="#94a6b2"/>
    <path id="Path_8190" data-name="Path 8190" d="M649.483,314.809a66.6,66.6,0,1,0,133.207,0,44.642,44.642,0,0,0-.971-8.681c-14.188-70.634-117.077-70.634-131.264,0A44.444,44.444,0,0,0,649.483,314.809Z" transform="translate(-640.393 -253.153)" fill="url(#linear-gradient-4)"/>
  </g>
  <g id="Group_6336" data-name="Group 6336" transform="translate(492.547 708.254)">
    <path id="Path_8191" data-name="Path 8191" d="M500.582,399.644c5.347-3.086,8.017-7.146,8.007-11.2l.063,22.51c.012,4.052-2.658,8.112-8.007,11.2l-12.971,7.489-.063-22.51Z" transform="translate(-401.642 -372.79)" fill="#d8e1e5"/>
    <path id="Path_8192" data-name="Path 8192" d="M495.992,387.022l.064,22.509,38.283,22.248-.064-22.509Z" transform="translate(-448.308 -374.926)" fill="#eee"/>
    <path id="Path_8193" data-name="Path 8193" d="M487.636,394.285l38.285,22.247,12.969-7.487c10.631-6.138,10.686-16.112.128-22.247-10.586-6.153-27.782-6.137-38.41,0Z" transform="translate(-439.952 -382.19)" fill="#e6ecef"/>
    <path id="Path_8194" data-name="Path 8194" d="M506.657,393.18l.064,22.509L545,437.936l-.064-22.509Z" transform="translate(-485.669 -365.67)" fill="#00c3b6"/>
    <path id="Path_8195" data-name="Path 8195" d="M495.992,411.323l.064,22.509,26.7-15.413-.064-22.509Z" transform="translate(-436.721 -361.566)" fill="url(#linear-gradient-9)"/>
    <path id="Path_8196" data-name="Path 8196" d="M496.017,402.436,534.3,424.683,561,409.27l-38.283-22.248Z" transform="translate(-475.029 -374.926)" fill="url(#linear-gradient-9)"/>
    <path id="Path_8197" data-name="Path 8197" d="M514.549,411.693c10.558,6.135,27.779,6.135,38.407,0l12.971-7.489.065,22.508L553.022,434.2c-10.628,6.138-27.849,6.138-38.41,0-5.254-3.054-7.88-7.046-7.892-11.044l-.063-22.51C506.667,404.644,509.3,408.639,514.549,411.693Z" transform="translate(-506.657 -354.447)" fill="#94a6b2"/>
    <path id="Path_8198" data-name="Path 8198" d="M514.7,400.669c-10.628,6.135-10.711,16.095-.125,22.247,10.558,6.135,27.779,6.135,38.407,0l12.971-7.489L527.672,393.18Z" transform="translate(-506.683 -365.67)" fill="#b2c3ce"/>
  </g>
  <g id="Group_6368" data-name="Group 6368" transform="translate(534.214 664.609)">
    <g id="Group_6359" data-name="Group 6359" transform="translate(105.38)">
      <g id="Group_6358" data-name="Group 6358" transform="translate(0)" style="isolation: isolate">
        <g id="Group_6339" data-name="Group 6339" transform="translate(20.906 27.185)" style="isolation: isolate">
          <g id="Group_6338" data-name="Group 6338" transform="translate(0)" clip-path="url(#clip-path)">
            <g id="Group_6337" data-name="Group 6337" transform="translate(-8.473 -12.273)" style="isolation: isolate">
              <path id="Path_8199" data-name="Path 8199" d="M453.172,407.636l.042,14.48c-.032-11.437,7.514-22.893,22.638-31.624a83.4,83.4,0,0,1,11.054-5.3l-.04-14.48a83.272,83.272,0,0,0-11.056,5.3c-15.121,8.728-22.67,20.185-22.638,31.624" transform="translate(-453.172 -370.711)" fill="#121011"/>
            </g>
          </g>
        </g>
        <g id="Group_6342" data-name="Group 6342" transform="translate(18.137 31.428)" style="isolation: isolate">
          <g id="Group_6341" data-name="Group 6341" transform="translate(0)" clip-path="url(#clip-path-2)">
            <g id="Group_6340" data-name="Group 6340" transform="translate(-5.705 -16.515)" style="isolation: isolate">
              <path id="Path_8201" data-name="Path 8201" d="M453.172,407.636l.042,14.48c-.032-11.437,7.514-22.893,22.638-31.624a83.4,83.4,0,0,1,11.054-5.3l-.04-14.48a83.272,83.272,0,0,0-11.056,5.3c-15.121,8.728-22.67,20.185-22.638,31.624" transform="translate(-453.172 -370.711)" fill="#121011"/>
            </g>
          </g>
        </g>
        <g id="Group_6345" data-name="Group 6345" transform="translate(15.8 34.912)" style="isolation: isolate">
          <g id="Group_6344" data-name="Group 6344" transform="translate(0)" clip-path="url(#clip-path-3)">
            <g id="Group_6343" data-name="Group 6343" transform="translate(-3.367 -20)" style="isolation: isolate">
              <path id="Path_8203" data-name="Path 8203" d="M453.172,407.636l.042,14.48c-.032-11.437,7.514-22.893,22.638-31.624a83.4,83.4,0,0,1,11.054-5.3l-.04-14.48a83.272,83.272,0,0,0-11.056,5.3c-15.121,8.728-22.67,20.185-22.638,31.624" transform="translate(-453.172 -370.711)" fill="#121011"/>
            </g>
          </g>
        </g>
        <g id="Group_6348" data-name="Group 6348" transform="translate(13.882 38.712)" style="isolation: isolate">
          <g id="Group_6347" data-name="Group 6347" transform="translate(0)" clip-path="url(#clip-path-4)">
            <g id="Group_6346" data-name="Group 6346" transform="translate(-1.449 -23.799)" style="isolation: isolate">
              <path id="Path_8205" data-name="Path 8205" d="M453.172,407.636l.042,14.48c-.032-11.437,7.514-22.893,22.638-31.624a83.4,83.4,0,0,1,11.054-5.3l-.04-14.48a83.272,83.272,0,0,0-11.056,5.3c-15.121,8.728-22.67,20.185-22.638,31.624" transform="translate(-453.172 -370.711)" fill="#121011"/>
            </g>
          </g>
        </g>
        <g id="Group_6351" data-name="Group 6351" transform="translate(13.367 43.143)" style="isolation: isolate">
          <g id="Group_6350" data-name="Group 6350" transform="translate(0)" clip-path="url(#clip-path-5)">
            <g id="Group_6349" data-name="Group 6349" transform="translate(-0.934 -28.23)" style="isolation: isolate">
              <path id="Path_8207" data-name="Path 8207" d="M453.172,407.636l.042,14.48c-.032-11.437,7.514-22.893,22.638-31.624a83.4,83.4,0,0,1,11.054-5.3l-.04-14.48a83.272,83.272,0,0,0-11.056,5.3c-15.121,8.728-22.67,20.185-22.638,31.624" transform="translate(-453.172 -370.711)" fill="#121011"/>
            </g>
          </g>
        </g>
        <path id="Path_8209" data-name="Path 8209" d="M418.13,387.595v0c.949-.829,2.027-1.62,3.081-2.418.511-.386.954-.789,1.487-1.166q2.474-1.754,5.3-3.387a83.279,83.279,0,0,1,11.056-5.3c.2-.078.421-.133.623-.21.618-.238,1.277-.416,1.907-.643,2.228-.808,4.45-1.627,6.778-2.288,1.254-.358,2.561-.628,3.84-.944.733-.18,1.449-.368,2.188-.536.663-.15,1.3-.343,1.97-.483q3.755-.777,7.6-1.322c.909-.128,1.832-.2,2.746-.308.641-.075,1.274-.148,1.917-.213.934-.1,1.857-.235,2.8-.313q3.762-.312,7.554-.406c.791-.02,1.584.018,2.375.013.686-.005,1.364,0,2.05.008,1.146.01,2.29-.023,3.434.017q4.273.146,8.508.566c.323.033.636.1.961.135.759.08,1.494.218,2.25.313,2.2.275,4.41.526,6.573.916.954.17,1.825.5,2.768.688,2.621.538,5.141,1.2,7.667,1.91,1.339.375,2.773.591,4.08,1.016,1.076.348,2.07.8,3.124,1.182,1,.363,1.988.731,2.969,1.124a82.574,82.574,0,0,1,10.7,5.079c.315.183.628.368.936.553.708.426,1.312.886,1.985,1.324.931.606,1.885,1.2,2.748,1.832.763.558,1.449,1.134,2.16,1.707.8.641,1.612,1.276,2.343,1.935.148.135.331.258.478.393.3.278.506.576.793.856a44.217,44.217,0,0,1,3.252,3.494c.215.26.5.5.711.763s.33.523.523.779c.663.886,1.252,1.782,1.81,2.686.23.375.538.738.751,1.116.108.19.168.386.27.576.428.793.776,1.594,1.124,2.4.2.463.473.919.648,1.384.058.158.08.32.135.478.27.756.456,1.519.656,2.285.138.518.343,1.031.448,1.554.028.138.022.275.048.416.148.8.2,1.594.273,2.4.047.528.165,1.056.183,1.587,0,.223.01.445.01.671h0l.04,14.483h0v0c0-.746-.123-1.489-.188-2.235-.073-.808-.13-1.617-.278-2.423-.12-.653-.32-1.3-.491-1.955-.2-.766-.388-1.534-.658-2.3-.223-.626-.518-1.244-.786-1.865-.348-.8-.7-1.6-1.124-2.393-.305-.571-.673-1.129-1.021-1.692-.556-.9-1.146-1.8-1.807-2.686-.39-.521-.811-1.031-1.237-1.542a44.175,44.175,0,0,0-3.249-3.5c-.431-.416-.819-.839-1.272-1.249-.733-.658-1.547-1.294-2.345-1.935-.711-.571-1.4-1.149-2.16-1.7-.864-.628-1.817-1.227-2.748-1.835-.966-.628-1.882-1.274-2.921-1.877a82.356,82.356,0,0,0-10.7-5.076c-.979-.393-1.97-.763-2.971-1.126-2.325-.841-4.766-1.512-7.2-2.2-2.516-.706-5.054-1.372-7.667-1.907-3.071-.633-6.168-1.206-9.331-1.6-.759-.1-1.5-.233-2.265-.315-4.258-.456-8.573-.681-12.891-.716-.688,0-1.377-.015-2.063-.01-4.26.03-8.513.265-12.718.706-.643.068-1.282.138-1.92.215a121.421,121.421,0,0,0-12.32,2.11c-.736.168-1.457.358-2.183.536a104.36,104.36,0,0,0-10.628,3.234c-.623.225-1.284.4-1.9.641a83.761,83.761,0,0,0-11.679,5.512q-2.831,1.633-5.3,3.387c-.5.353-.911.728-1.387,1.086-10.611,8-15.977,17.569-15.95,27.151l-.043-14.48C405.337,403.649,409.6,395.044,418.13,387.595Z" transform="translate(-392.929 -360.404)" fill="#141213"/>
        <g id="Group_6352" data-name="Group 6352" transform="translate(12.433 7.208)">
          <path id="Path_8210" data-name="Path 8210" d="M428.016,380.639c-30.057,17.351-30.192,45.473-.353,62.812,29.862,17.354,78.386,17.354,108.443,0,30.034-17.339,30.215-45.458.353-62.812C506.62,363.3,458.053,363.3,428.016,380.639Z" transform="translate(-405.378 -367.633)" fill="url(#linear-gradient-4)"/>
        </g>
        <g id="Group_6355" data-name="Group 6355" transform="translate(12.433 51.4)" style="isolation: isolate">
          <g id="Group_6354" data-name="Group 6354" transform="translate(0)" clip-path="url(#clip-path-6)">
            <g id="Group_6353" data-name="Group 6353" transform="translate(0)" style="isolation: isolate">
              <path id="Path_8211" data-name="Path 8211" d="M466.628,385.463l.042,14.48c0,.225,0,.451.01.673l-.04-14.48c-.007-.225-.012-.451-.012-.673" transform="translate(-466.628 -385.025)" fill="#949494"/>
              <path id="Path_8212" data-name="Path 8212" d="M466.427,385.732l.04,14.48a26.243,26.243,0,0,0,.5,4.4l-.043-14.483a25.942,25.942,0,0,1-.5-4.4" transform="translate(-466.415 -384.621)" fill="#999"/>
              <path id="Path_8213" data-name="Path 8213" d="M465.932,387.489l.043,14.483a27.6,27.6,0,0,0,1.239,4.315l-.043-14.48a27.922,27.922,0,0,1-1.239-4.318" transform="translate(-465.419 -381.98)" fill="#9e9e9e"/>
              <path id="Path_8214" data-name="Path 8214" d="M465.116,389.214l.043,14.48a31,31,0,0,0,2.042,4.36l-.042-14.48a31.135,31.135,0,0,1-2.043-4.36" transform="translate(-463.364 -379.387)" fill="#a3a3a3"/>
              <path id="Path_8215" data-name="Path 8215" d="M463.883,390.956l.043,14.48a36.047,36.047,0,0,0,3.086,4.583l-.043-14.483a36.556,36.556,0,0,1-3.086-4.581" transform="translate(-460.088 -376.769)" fill="#a8a8a8"/>
              <path id="Path_8216" data-name="Path 8216" d="M461.983,392.786l.043,14.483a44.081,44.081,0,0,0,4.756,5.114l-.04-14.483a43.929,43.929,0,0,1-4.758-5.114" transform="translate(-455.102 -374.018)" fill="#adadad"/>
              <path id="Path_8217" data-name="Path 8217" d="M458.1,394.829l.04,14.483a59.494,59.494,0,0,0,9.709,7.191l-.04-14.483a59.245,59.245,0,0,1-9.709-7.191" transform="translate(-446.465 -370.947)" fill="#b3b3b3"/>
              <path id="Path_8218" data-name="Path 8218" d="M451.01,397.7l.04,14.483c.31.185.621.368.936.553a86.905,86.905,0,0,0,16.821,7.394l-.042-14.48a86.668,86.668,0,0,1-16.818-7.4c-.315-.183-.626-.368-.936-.553" transform="translate(-429.661 -366.629)" fill="#b8b8b8"/>
              <path id="Path_8219" data-name="Path 8219" d="M445.211,400.878l.042,14.48a110.826,110.826,0,0,0,14.516,3.614l-.04-14.48a110.858,110.858,0,0,1-14.518-3.614" transform="translate(-406.108 -361.855)" fill="#b3b3b3"/>
              <path id="Path_8220" data-name="Path 8220" d="M441.305,402.322l.04,14.48c3.214.581,6.48,1.034,9.777,1.362l-.04-14.48c-3.3-.328-6.566-.783-9.777-1.362" transform="translate(-387.684 -359.685)" fill="#adadad"/>
              <path id="Path_8221" data-name="Path 8221" d="M437.91,402.866l.04,14.48q4.224.421,8.5.568l-.042-14.483c-2.844-.1-5.682-.285-8.5-.566" transform="translate(-374.512 -358.867)" fill="#a8a8a8"/>
              <path id="Path_8222" data-name="Path 8222" d="M434.775,403.092l.043,14.483q3.92.131,7.847.035l-.04-14.48q-3.924.1-7.85-.037" transform="translate(-362.882 -358.527)" fill="#a3a3a3"/>
              <path id="Path_8223" data-name="Path 8223" d="M431.76,403.35l.04,14.48q3.785-.094,7.547-.4l-.04-14.483c-2.506.208-5.026.343-7.547.405" transform="translate(-352.017 -358.748)" fill="#9e9e9e"/>
              <path id="Path_8224" data-name="Path 8224" d="M428.783,403.446l.04,14.483q3.751-.312,7.452-.833l-.043-14.483q-3.695.526-7.449.834" transform="translate(-341.493 -359.249)" fill="#999"/>
              <path id="Path_8225" data-name="Path 8225" d="M425.747,403.4l.043,14.483q3.845-.545,7.6-1.322l-.042-14.48q-3.751.777-7.6,1.319" transform="translate(-331.008 -360.041)" fill="#949494"/>
              <path id="Path_8226" data-name="Path 8226" d="M422.552,403.263l.042,14.48q4.07-.845,8-1.96l-.04-14.483q-3.92,1.119-8,1.962" transform="translate(-320.214 -361.219)" fill="#8f8f8f"/>
              <path id="Path_8227" data-name="Path 8227" d="M418.83,403.189l.04,14.483c3.2-.914,6.315-1.96,9.316-3.146l-.04-14.48c-3,1.184-6.118,2.233-9.316,3.144" transform="translate(-308.492 -363.107)" fill="#8a8a8a"/>
              <path id="Path_8228" data-name="Path 8228" d="M405.362,422.226l.04,14.48a83.4,83.4,0,0,0,11.074-5.309c15.116-8.728,22.67-20.185,22.638-31.629l-.04-14.48c.032,11.442-7.522,22.9-22.638,31.626a83.243,83.243,0,0,1-11.074,5.312" transform="translate(-285.707 -385.288)" fill="#858585"/>
            </g>
          </g>
        </g>
        <g id="Group_6356" data-name="Group 6356" transform="translate(0 51.365)" style="isolation: isolate">
          <path id="Path_8230" data-name="Path 8230" d="M471.6,385.478l.04,14.48c0,.26.007.523.012.783l-.04-14.483c-.008-.26-.012-.521-.012-.781" transform="translate(-471.595 -384.967)" fill="#141213"/>
          <path id="Path_8231" data-name="Path 8231" d="M471.361,385.79l.04,14.483a30.56,30.56,0,0,0,.586,5.114l-.043-14.48a30.569,30.569,0,0,1-.583-5.116" transform="translate(-471.348 -384.498)" fill="#151313"/>
          <path id="Path_8232" data-name="Path 8232" d="M470.786,387.834l.043,14.48a32.156,32.156,0,0,0,1.439,5.019l-.04-14.483a32.422,32.422,0,0,1-1.442-5.016" transform="translate(-470.19 -381.426)" fill="#161314"/>
          <path id="Path_8233" data-name="Path 8233" d="M469.837,389.838l.04,14.483a35.892,35.892,0,0,0,2.375,5.066l-.043-14.48a36.32,36.32,0,0,1-2.373-5.069" transform="translate(-467.8 -378.414)" fill="#161414"/>
          <path id="Path_8234" data-name="Path 8234" d="M468.405,391.863l.043,14.48a42.246,42.246,0,0,0,3.584,5.327l-.04-14.483a41.974,41.974,0,0,1-3.587-5.324" transform="translate(-463.995 -375.37)" fill="#171415"/>
          <path id="Path_8235" data-name="Path 8235" d="M466.2,393.99l.04,14.483a51.488,51.488,0,0,0,5.529,5.942l-.043-14.48a51.487,51.487,0,0,1-5.527-5.945" transform="translate(-458.199 -372.173)" fill="#181516"/>
          <path id="Path_8236" data-name="Path 8236" d="M461.689,396.365l.043,14.48a68.9,68.9,0,0,0,11.281,8.353l-.042-14.48a69.16,69.16,0,0,1-11.281-8.353" transform="translate(-448.165 -368.603)" fill="#191616"/>
          <path id="Path_8237" data-name="Path 8237" d="M453.455,399.7l.042,14.48q.537.323,1.086.643a100.672,100.672,0,0,0,19.524,8.586l-.04-14.483a100.6,100.6,0,0,1-19.524-8.583c-.368-.213-.729-.428-1.089-.643" transform="translate(-428.65 -363.588)" fill="#191617"/>
          <path id="Path_8238" data-name="Path 8238" d="M578.668,399.757l-.022-7.241-.02-7.241v0a32.159,32.159,0,0,1-3.675,14.8c-4.105,8.037-11.649,15.617-22.63,21.957-2.1,1.211-4.28,2.345-6.528,3.407-.19.093-.4.168-.588.258-2.1.976-4.245,1.9-6.453,2.758-.513.2-1.036.378-1.554.568q-2.662.984-5.412,1.85c-.626.2-1.249.4-1.882.583-1.161.345-2.358.638-3.539.951-1.827.483-3.667.949-5.537,1.357-1.221.268-2.455.513-3.694.748-1.564.3-3.141.576-4.728.821q-1.982.308-3.977.563-2.219.282-4.455.5c-1.369.13-2.743.248-4.12.343-1.5.105-3.006.183-4.511.243-1.364.053-2.726.093-4.09.113-1.627.02-3.254.008-4.878-.023-1.292-.023-2.581-.05-3.867-.108-2.018-.088-4.025-.235-6.027-.4-1.194-.1-2.393-.173-3.579-.3-.6-.065-1.2-.143-1.807-.215q-3.105-.372-6.168-.874c-.5-.083-1.011-.153-1.512-.24-1.212-.213-2.393-.486-3.587-.728-1.655-.333-3.314-.661-4.936-1.056-1.182-.285-2.33-.623-3.494-.939-1.544-.421-3.091-.839-4.6-1.312a101.639,101.639,0,0,1-20.508-8.866c-17.231-10.015-25.857-23.121-25.894-36.247l.04,14.48c.038,13.126,8.663,26.235,25.894,36.247a100.908,100.908,0,0,0,19.524,8.528v.057c.32.1.663.18.986.28,1.507.476,3.049.891,4.591,1.312,1.166.318,2.318.656,3.5.941,1.622.393,3.276.721,4.931,1.056.959.193,1.895.436,2.864.611.238.042.486.073.726.115.5.088,1.009.16,1.514.243q3.06.5,6.167.871c.6.073,1.2.15,1.807.215.385.043.766.1,1.154.138.8.08,1.617.1,2.423.163,2.005.168,4.01.315,6.027.4.481.022.954.08,1.434.1.811.028,1.622,0,2.433.01,1.627.03,3.252.045,4.879.022.608-.007,1.214.023,1.82.008.759-.018,1.512-.09,2.27-.12q2.26-.09,4.513-.24c.663-.047,1.334-.053,2-.108.711-.06,1.412-.168,2.12-.238,1.494-.143,2.974-.308,4.455-.5.693-.088,1.4-.135,2.09-.233.636-.09,1.254-.23,1.887-.328,1.589-.248,3.161-.526,4.731-.823.736-.14,1.489-.235,2.218-.386.5-.105.979-.253,1.474-.36,1.872-.411,3.707-.874,5.537-1.359.753-.2,1.539-.345,2.285-.558.426-.123.833-.265,1.257-.39.633-.188,1.254-.388,1.88-.586q2.752-.864,5.414-1.847c.516-.193,1.041-.37,1.552-.568.238-.093.483-.17.718-.263v-.043h0v.043a96.784,96.784,0,0,0,12.853-6.163c8.783-5.071,15.369-10.936,19.754-17.194a36.892,36.892,0,0,0,5.169-10.618A30.97,30.97,0,0,0,578.668,399.757Z" transform="translate(-400.394 -385.274)" fill="#425460"/>
        </g>
        <g id="Group_6357" data-name="Group 6357">
          <path id="Path_8239" data-name="Path 8239" d="M426.716,379.871c-34.913,20.157-35.1,52.847-.411,73s91.122,20.157,126.033,0,35.1-52.847.413-73S461.629,359.714,426.716,379.871ZM543.572,447.78c-30.059,17.354-78.582,17.354-108.443,0-29.839-17.339-29.7-45.461.353-62.812,30.037-17.341,78.6-17.341,108.443,0,29.862,17.354,29.682,45.473-.353,62.812" transform="translate(-400.411 -364.753)" fill="#576a7a"/>
        </g>
      </g>
    </g>
    <g id="Group_6360" data-name="Group 6360" transform="translate(214.938 30.765)" style="mix-blend-mode: screen;isolation: isolate">
      <path id="Path_8240" data-name="Path 8240" d="M418.093,380.328c-7.589,4.38-7.624,11.482-.09,15.859s19.792,4.38,27.381,0,7.629-11.479.09-15.859S425.677,375.95,418.093,380.328Z" transform="translate(-412.376 -377.044)" fill="#425460"/>
    </g>
    <g id="Group_6367" data-name="Group 6367" transform="translate(0 90.543)">
      <g id="Group_6363" data-name="Group 6363" transform="translate(64.114)">
        <g id="Group_6362" data-name="Group 6362" style="isolation: isolate">
          <path id="Path_8241" data-name="Path 8241" d="M459.828,437.411l-.1-.01a4.007,4.007,0,0,0-1.1.058l-.053.01a3.461,3.461,0,0,0-.991.375l.022-.012-.022.012,62.732-36.455.038-.023a3.391,3.391,0,0,1,.345-.168,2.921,2.921,0,0,1,.36-.128c.08-.023.163-.038.245-.058l.055-.013c.03-.005.058-.015.085-.018a3.733,3.733,0,0,1,.413-.05,3.929,3.929,0,0,1,.456,0c.048,0,.1.01.148.015l.1.01c.085.01.17.013.26.025.2.03.4.075.6.128.085.025.175.063.26.09l.24.083c.1.038.2.063.305.108a8.081,8.081,0,0,1,.956.476,11.232,11.232,0,0,1,2.065,1.6c.068.065.145.1.213.165.09.09.175.19.265.283.075.078.148.158.223.238s.17.175.253.268c.19.218.373.443.551.673.068.085.13.175.2.263l.093.128c.055.075.113.148.165.223.135.193.268.39.4.588s.238.383.35.578l.04.068.03.058c.085.148.17.3.25.448.1.193.2.385.3.581s.178.383.263.573l0,.008.005.012c.09.205.173.411.253.616s.158.431.233.646c.038.115.07.233.105.348.013.045.028.09.04.135.023.073.048.145.068.218.073.263.138.526.193.788.035.163.058.325.083.488.015.083.03.165.043.245s.03.148.04.223a10.749,10.749,0,0,1,.088,1.347c-.008,2.165-.768,3.692-2,4.408l-62.73,36.455c1.229-.716,1.992-2.243,2-4.408a10.3,10.3,0,0,0-.125-1.569c-.013-.08-.028-.163-.043-.245a13.053,13.053,0,0,0-.343-1.492l-.042-.14a15.007,15.007,0,0,0-.6-1.62l0-.005a16.674,16.674,0,0,0-.808-1.609l-.028-.05a16.8,16.8,0,0,0-.954-1.459l-.09-.125a15.2,15.2,0,0,0-1-1.209c-.073-.078-.148-.158-.22-.233-.155-.163-.32-.3-.478-.448a11.307,11.307,0,0,0-2.065-1.6,7.94,7.94,0,0,0-1.264-.583l-.238-.083A5.521,5.521,0,0,0,459.828,437.411Z" transform="translate(-455.582 -400.926)" fill="#b2c3ce"/>
          <g id="Group_6361" data-name="Group 6361" transform="translate(0 36.455)">
            <path id="Path_8242" data-name="Path 8242" d="M489.513,416.429c-3.78-2.183-6.858-.428-6.871,3.915a15.052,15.052,0,0,0,6.826,11.822c3.78,2.18,6.828.411,6.841-3.932A14.985,14.985,0,0,0,489.513,416.429Z" transform="translate(-482.642 -415.49)" fill="#171516"/>
          </g>
        </g>
      </g>
      <g id="Group_6366" data-name="Group 6366" transform="translate(0 20.732)">
        <g id="Group_6365" data-name="Group 6365" style="isolation: isolate">
          <path id="Path_8243" data-name="Path 8243" d="M479.243,455.186a8.435,8.435,0,0,0-1.685-.365c-.05-.005-.1-.013-.148-.015a6.077,6.077,0,0,0-1.652.085l-.085.02a5.064,5.064,0,0,0-1.479.561L552.606,409.9l.057-.032a4.967,4.967,0,0,1,.518-.253,4.8,4.8,0,0,1,.543-.19c.118-.035.243-.06.365-.085l.083-.02c.042-.007.085-.02.128-.03a6.242,6.242,0,0,1,.621-.073c.223-.013.451-.015.681-.005.073.005.148.018.22.023.05,0,.1.01.15.015.13.012.26.02.4.04a7.866,7.866,0,0,1,.9.193c.125.033.258.093.385.133s.238.08.358.123c.155.055.3.1.46.16a12.02,12.02,0,0,1,1.429.711,16.023,16.023,0,0,1,1.932,1.339c.205.163.4.353.6.526.3.263.608.508.9.791.133.133.258.28.391.416.115.12.228.24.34.363.128.14.263.27.388.416q.428.488.831,1.011c.1.123.185.253.278.378l.143.193c.088.12.178.233.263.353q.3.436.591.886c.183.285.36.573.531.866l.048.085.038.07c.135.235.268.471.4.708.153.288.3.578.441.871.13.27.255.543.375.816l.018.04.015.035c.133.305.258.613.375.919.125.323.24.646.35.971.055.165.1.33.15.5.022.068.043.135.063.205.035.113.073.228.105.34.11.393.205.788.288,1.179.052.24.083.478.125.719.02.123.045.245.063.368s.042.225.057.338a15.253,15.253,0,0,1,.13,2.007c-.007,3.244-1.146,5.524-2.984,6.591L488.727,480.48c1.837-1.069,2.976-3.347,2.984-6.591a15.78,15.78,0,0,0-.188-2.348c-.017-.123-.042-.245-.062-.37a19.15,19.15,0,0,0-.518-2.233c-.02-.07-.04-.14-.062-.21a23.8,23.8,0,0,0-.891-2.423l-.015-.028a24.586,24.586,0,0,0-1.214-2.405l-.038-.068a24.59,24.59,0,0,0-1.432-2.193l-.14-.193a22.868,22.868,0,0,0-1.5-1.8c-.11-.123-.223-.24-.335-.36-.418-.433-.856-.826-1.3-1.212-.2-.173-.393-.36-.6-.523a15.9,15.9,0,0,0-1.932-1.339,11.777,11.777,0,0,0-1.892-.871C479.478,455.266,479.36,455.224,479.243,455.186Z" transform="translate(-471.198 -409.209)" fill="#576a7a"/>
          <g id="Group_6364" data-name="Group 6364" transform="translate(0 45.57)">
            <path id="Path_8244" data-name="Path 8244" d="M515.811,428.816c-5.654-3.264-10.273-.633-10.29,5.865-.02,6.528,4.568,14.443,10.223,17.707,5.684,3.282,10.273.666,10.29-5.862C526.054,440.027,521.493,432.1,515.811,428.816Z" transform="translate(-505.521 -427.414)" fill="#425460"/>
          </g>
        </g>
      </g>
    </g>
  </g>
  <g id="Group_6386" data-name="Group 6386" transform="translate(522.183 283.783)">
    <g id="Group_6372" data-name="Group 6372" transform="translate(125.223 60.088)">
      <g id="Group_6371" data-name="Group 6371" transform="translate(0)" style="isolation: isolate">
        <g id="Group_6369" data-name="Group 6369" transform="translate(0 81.361)">
          <path id="Path_8245" data-name="Path 8245" d="M355.55,269.924l.408,144.04c.058,20.788,13.722,41.544,41.013,57.4,54.948,31.934,144.318,31.934,199.626,0,27.827-16.065,41.724-37.156,41.664-58.212l-.408-144.037c.06,21.056-13.837,42.144-41.664,58.209-55.308,31.932-144.678,31.932-199.626,0C369.272,311.47,355.608,290.712,355.55,269.924Z" transform="translate(-355.55 -269.12)" fill="#3a4d57"/>
        </g>
        <g id="Group_6370" data-name="Group 6370">
          <path id="Path_8246" data-name="Path 8246" d="M397.387,260.559c-55.308,31.934-55.6,83.7-.661,115.627s144.318,31.932,199.626,0,55.591-83.693.641-115.625S452.685,228.634,397.387,260.559Z" transform="translate(-355.713 -236.616)" fill="#3a4d57"/>
        </g>
      </g>
    </g>
    <path id="Path_8247" data-name="Path 8247" d="M453.376,326.847c27.426,15.94,63.428,23.919,99.49,23.947V494.826c-35.924-.088-71.758-8.062-99.082-23.942-27.291-15.859-40.955-36.615-41.013-57.4l-.408-144.04C412.421,290.229,426.082,310.987,453.376,326.847Z" transform="translate(-287.14 -127.189)" fill="#2a3b42"/>
    <g id="Group_6377" data-name="Group 6377" transform="translate(0)">
      <g id="Group_6376" data-name="Group 6376" style="isolation: isolate">
        <g id="Group_6373" data-name="Group 6373">
          <path id="Path_8248" data-name="Path 8248" d="M305.536,367.011l265.692,154.4,267.43-154.4L572.967,212.61Z" transform="translate(-305.536 -212.61)" fill="#445c66"/>
        </g>
        <g id="Group_6374" data-name="Group 6374" transform="translate(0 154.401)">
          <path id="Path_8249" data-name="Path 8249" d="M412.363,274.294,412.4,286.1,678.089,440.5l-.034-11.806Z" transform="translate(-412.363 -274.294)" fill="#3a4d57"/>
        </g>
        <g id="Group_6375" data-name="Group 6375" transform="translate(265.692 154.403)">
          <path id="Path_8250" data-name="Path 8250" d="M305.523,428.7l.034,11.806L572.987,286.1l-.034-11.806Z" transform="translate(-305.523 -274.295)" fill="#2a3b42"/>
        </g>
      </g>
    </g>
    <g id="Group_6378" data-name="Group 6378" transform="translate(122.839 347.984)">
      <path id="Path_8251" data-name="Path 8251" d="M465.048,353.113c-3.422,1.975-3.452,5.184-.053,7.159a13.637,13.637,0,0,0,12.373,0c3.419-1.975,3.439-5.179.028-7.159A13.608,13.608,0,0,0,465.048,353.113Z" transform="translate(-462.464 -351.632)" fill="url(#linear-gradient-25)"/>
    </g>
    <g id="Group_6383" data-name="Group 6383" transform="translate(116.676 334.552)">
      <g id="Group_6379" data-name="Group 6379" transform="translate(0 40.843)">
        <path id="Path_8252" data-name="Path 8252" d="M464.406,365.108c-5.832,3.369-5.882,8.843-.088,12.21,5.812,3.379,15.266,3.367,21.1,0s5.862-8.831.048-12.21C479.669,361.742,470.238,361.742,464.406,365.108Z" transform="translate(-460.002 -362.583)" fill="url(#linear-gradient-9)"/>
      </g>
      <path id="Path_8253" data-name="Path 8253" d="M489.808,384.431l-6.163-30.2-17.44-.436L460,384.431Z" transform="translate(-460.002 -334.956)" fill="url(#linear-gradient-9)"/>
      <g id="Group_6382" data-name="Group 6382" transform="translate(6.163)" style="isolation: isolate">
        <g id="Group_6380" data-name="Group 6380" transform="translate(0.001 5.043)">
          <path id="Path_8254" data-name="Path 8254" d="M462.449,348.331l.037,13.742c.005,1.287.846,2.568,2.531,3.549a13.644,13.644,0,0,0,12.373,0c1.722-.994,2.581-2.3,2.576-3.6l-.037-13.742c0,1.3-.856,2.606-2.576,3.6a13.644,13.644,0,0,1-12.373,0C463.3,350.9,462.452,349.618,462.449,348.331Z" transform="translate(-462.449 -348.281)" fill="url(#linear-gradient-8)"/>
        </g>
        <g id="Group_6381" data-name="Group 6381" transform="translate(0)">
          <path id="Path_8255" data-name="Path 8255" d="M465.048,347.747c-3.422,1.975-3.452,5.186-.053,7.161a13.644,13.644,0,0,0,12.373,0c3.419-1.975,3.439-5.179.028-7.161A13.608,13.608,0,0,0,465.048,347.747Z" transform="translate(-462.464 -346.266)" fill="url(#linear-gradient-9)"/>
        </g>
      </g>
    </g>
    <g id="Group_6384" data-name="Group 6384" transform="translate(124.73 213.867)">
      <path id="Path_8256" data-name="Path 8256" d="M470.758,298.293l-6.125,3.559a2.537,2.537,0,0,1,2.561.253l6.125-3.559A2.543,2.543,0,0,0,470.758,298.293Z" transform="translate(-463.159 -298.052)" fill="url(#linear-gradient-30)"/>
      <path id="Path_8257" data-name="Path 8257" d="M465.648,420.716v.318a3.353,3.353,0,0,0,1.927,2.533,9.868,9.868,0,0,0,5.271,1.116l.421-118.5a7.91,7.91,0,0,0-3.579-6.215,3.385,3.385,0,0,0-1.635-.491,1.521,1.521,0,0,0-.378.043h-.043a1.876,1.876,0,0,0-.29.1.2.2,0,0,0-.088.03l-.088.043a2.5,2.5,0,0,0-1.1,2.333Z" transform="translate(-465.648 -295.914)" fill="url(#linear-gradient-31)"/>
      <path id="Path_8258" data-name="Path 8258" d="M466.787,308.018l6.125-3.559a7.913,7.913,0,0,0-3.587-6.21l-6.125,3.559A7.917,7.917,0,0,1,466.787,308.018Z" transform="translate(-459.165 -297.755)" fill="url(#linear-gradient-9)"/>
    </g>
    <g id="Group_6385" data-name="Group 6385" transform="translate(125.243 139.082)">
      <path id="Path_8259" data-name="Path 8259" d="M412.855,269.353l-.02,7.084a2.516,2.516,0,0,1-1.472,2.063l.02-7.084A2.519,2.519,0,0,0,412.855,269.353Z" transform="translate(-269.868 -266.403)" fill="url(#linear-gradient-33)"/>
      <path id="Path_8260" data-name="Path 8260" d="M552.855,269.032c1.987,1.149,1.99,3.011.023,4.155l-132.846,77.2a7.891,7.891,0,0,1-7.171,0c-1.987-1.146-2-3.006-.023-4.153l132.846-77.2A7.922,7.922,0,0,1,552.855,269.032Z" transform="translate(-411.363 -268.174)" fill="url(#linear-gradient-34)"/>
      <path id="Path_8261" data-name="Path 8261" d="M412.356,354.4V348l1.577-.621,132.849-77.2-.023,7.084L418.478,351.81l-.4,112.751v.466a3.4,3.4,0,0,1-1.955,2.576,9.425,9.425,0,0,1-4.173,1.116Z" transform="translate(-405.264 -265.164)" fill="url(#linear-gradient-9)"/>
    </g>
  </g>
</svg>